<svg width="24" height="24" viewBox="0 0 24 24" fill="none" xmlns="http://www.w3.org/2000/svg">
  <!-- Background circle -->
  <circle cx="12" cy="12" r="11" fill="#0D8DE3" stroke="#18A0FB" stroke-width="1"/>
  
  <!-- Figma-like shape (simplified) -->
  <path d="M8 8h8v8H8z" fill="#E1E1E1" opacity="0.9"/>
  
  <!-- Git branch symbol -->
  <path d="M6 12c0-1.1.9-2 2-2s2 .9 2 2-.9 2-2 2-2-.9-2-2z" fill="#0D8DE3"/>
  <path d="M14 12c0-1.1.9-2 2-2s2 .9 2 2-.9 2-2 2-2-.9-2-2z" fill="#0D8DE3"/>
  <path d="M10 12h4" stroke="#0D8DE3" stroke-width="2" stroke-linecap="round"/>
  
  <!-- Small dots representing references -->
  <circle cx="9" cy="9" r="1" fill="#FF6B35"/>
  <circle cx="15" cy="15" r="1" fill="#FF6B35"/>
  <circle cx="12" cy="6" r="0.8" fill="#FF6B35"/>
</svg> 