<svg width="128" height="128" viewBox="500 300 400 600" fill="none" xmlns="http://www.w3.org/2000/svg">

  <!-- Piece 1 -->
  <path d="M625.442 536.816C589.982 536.816 561.236 565.552 561.236 601C561.236 636.448 589.982 665.184 625.442 665.184H691.382V601V536.816H625.442Z" fill="none" stroke="#fff" stroke-width="12"/>

  <!-- Piece 2 -->
  <path d="M786.824 505.592L788.558 505.592C824.018 505.592 852.764 476.856 852.764 441.408C852.764 405.96 824.018 377.224 788.558 377.224H722.618V505.592L786.824 505.592Z" fill="none" stroke="#fff" stroke-width="12"/>

  <!-- Piece 3 -->
  <path d="M840.896 521.204C866.858 504.154 884 474.782 884 441.408C884 388.716 841.27 346 788.558 346H722.618H707H691.382H625.442C572.73 346 530 388.716 530 441.408C530 474.782 547.142 504.154 573.104 521.204C547.142 538.256 530 567.626 530 601C530 634.374 547.142 663.744 573.104 680.796C547.142 697.846 530 727.218 530 760.592C530 813.394 573.272 856 625.872 856C678.952 856 722.618 813.006 722.618 759.724V696.408V680.796V671.592C739.57 687.01 762.1 696.408 786.824 696.408H788.558C841.27 696.408 884 653.692 884 601C884 567.626 866.858 538.256 840.896 521.204Z" fill="none" stroke="#fff" stroke-width="12"/>

  <!-- Piece 4 -->
  <path fill-rule="evenodd" clip-rule="evenodd" d="M97.708 0C43.678 0 0 44 0 98.434c0 43.512 27.986 80.344 66.81 93.38 4.854.98 6.632-2.118 6.632-4.724 0-2.282-.16-10.104-.16-18.254-27.18 5.868-32.84-11.734-32.84-11.734-4.368-11.408-10.84-14.34-10.84-14.34-8.896-6.03.648-6.03.648-6.03 9.868.652 15.046 10.104 15.046 10.104 8.734 14.992 22.808 10.756 28.47 8.148.808-6.356 3.398-10.756 6.148-13.2-21.678-2.282-44.486-10.756-44.486-48.566 0-10.756 3.88-19.556 10.028-26.4-.97-2.444-4.368-12.55.972-26.076 0 0 8.25-2.608 26.852 10.104a93.94 93.94 0 0 1 24.428-3.26c8.25 0 16.66 1.142 24.426 3.26 18.604-12.712 26.854-10.104 26.854-10.104 5.34 13.526 1.94 23.632.97 26.076 6.31 6.844 10.03 15.644 10.03 26.4 0 37.81-22.808 46.12-44.648 48.566 3.56 3.096 6.632 8.962 6.632 18.252 0 13.2-.16 23.794-.16 27.052 0 2.608 1.78 5.706 6.632 4.728 38.824-13.04 66.81-49.87 66.81-93.382C195.414 44 151.576 0 97.708 0z" fill="#fff" transform="translate(720,520) scale(0.75)"/>

  <!-- Piece 5 -->
  <path d="M561.236 760.592C561.236 725.144 589.982 696.408 625.442 696.408H691.382V759.724C691.382 795.542 661.922 824.776 625.872 824.776C590.302 824.776 561.236 795.93 561.236 760.592Z" fill="none" stroke="#fff" stroke-width="12"/>

  <!-- Piece 6 -->
  <path d="M691.382 505.592H625.442C589.982 505.592 561.236 476.856 561.236 441.408C561.236 405.96 589.982 377.224 625.442 377.224H691.382V505.592Z" fill="none" stroke="#fff" stroke-width="12"/>
</svg>
