<svg width="50" height="40" viewBox="0 0 50 40" fill="none" xmlns="http://www.w3.org/2000/svg">
  <g transform="translate(13,8)">
    <!-- Piece 1 -->
    <path d="M6.5 10.5C3.5 10.5 1 13 1 16C1 19 3.5 21.5 6.5 21.5H13V16V10.5H6.5Z" fill="none" stroke="#d7dae0" stroke-width="2"/>
    <!-- Piece 2 -->
    <path d="M18.5 7.5L18.7 7.5C21.7 7.5 24.2 5 24.2 2C24.2 -1 21.7 -3.5 18.7 -3.5H13V7.5L18.5 7.5Z" fill="none" stroke="#d7dae0" stroke-width="2"/>
    <!-- Piece 3 -->
    <path d="M22 9C24 7.7 25.2 5.7 25.2 3C25.2 -1.2 21.8 -4.5 18.7 -4.5H13H11.5H10H6.5C3.4 -4.5 0 -1.2 0 3C0 5.7 1.2 7.7 3.2 9C1.2 10.3 0 12.3 0 15C0 17.7 1.2 19.7 3.2 21C1.2 22.3 0 24.3 0 27C0 31.2 3.4 34.5 6.5 34.5C9.6 34.5 13 31.2 13 27V21V19.7V18.5C14.7 20.1 17.1 21 18.5 21H18.7C21.8 21 25.2 17.7 25.2 15C25.2 12.3 24 10.3 22 9Z" fill="none" stroke="#d7dae0" stroke-width="2"/>
    <!-- Piece 4 (GitHub mark, smaller) -->
    <g transform="translate(12,8) scale(0.6)">
      <path fill-rule="evenodd" clip-rule="evenodd" d="M12 0C5.4 0 0 5.4 0 12c0 5.3 3.4 9.8 8.1 11.4.6.1.8-.3.8-.6 0-.3 0-1.2 0-2.2-3.3.7-4-1.6-4-1.6-.5-1.2-1.2-1.6-1.2-1.6-1-.7.1-.7.1-.7 1.1.1 1.7 1.1 1.7 1.1 1 .1 2.1.7 2.6.5.1-.7.4-1.2.7-1.5-2.7-.3-5.5-1.3-5.5-5.7 0-1.2.4-2.2 1-3-.1-.3-.5-1.4.1-3 0 0 1-.3 3.3 1.2.9-.2 1.8-.3 2.7-.3.9 0 1.8.1 2.7.3 2.3-1.5 3.3-1.2 3.3-1.2.6 1.6.2 2.7.1 3 .6.8 1 1.8 1 3 0 4.4-2.8 5.4-5.5 5.7.4.3.7.9.7 1.8 0 1.3 0 2.3 0 2.6 0 .3.2.7.8.6C20.6 21.8 24 17.3 24 12c0-6.6-5.4-12-12-12z" fill="#d7dae0"/>
    </g>
    <!-- Piece 5 -->
    <path d="M1 27C1 24 3.5 21.5 6.5 21.5H13V27C13 30.5 9.6 34.5 6.5 34.5C3.5 34.5 1 32 1 29Z" fill="none" stroke="#d7dae0" stroke-width="2"/>
    <!-- Piece 6 -->
    <path d="M13 7.5H6.5C3.5 7.5 1 5 1 2C1 -1 3.5 -3.5 6.5 -3.5H13V7.5Z" fill="none" stroke="#d7dae0" stroke-width="2"/>
  </g>
</svg>
